<?xml version="1.0" standalone="no"?>
<!DOCTYPE svg PUBLIC "-//W3C//DTD SVG 20010904//EN"
 "http://www.w3.org/TR/2001/REC-SVG-20010904/DTD/svg10.dtd">
<svg version="1.0" xmlns="http://www.w3.org/2000/svg"
 width="256.000000pt" height="287.000000pt" viewBox="0 0 256.000000 287.000000"
 preserveAspectRatio="xMidYMid meet">

<g transform="translate(0.000000,287.000000) scale(0.100000,-0.100000)"
fill="#A807B0" stroke="none">
<path d="M945 2864 c-546 -58 -914 -246 -942 -482 -10 -85 17 -145 106 -233
144 -143 385 -238 726 -285 160 -22 500 -14 655 14 380 72 636 194 727 349 19
32 27 64 31 113 4 61 1 76 -22 124 -85 173 -384 323 -757 381 -100 15 -441 28
-524 19z m371 -90 c269 -77 474 -245 474 -387 0 -27 -7 -64 -16 -82 -93 -196
-542 -307 -916 -225 -290 63 -433 195 -387 357 37 134 259 250 514 269 72 6
83 10 115 39 69 64 87 67 216 29z"/>
<path d="M1188 2688 c-15 -12 -31 -172 -50 -498 l-3 -35 65 2 c36 2 95 8 133
14 l67 11 0 51 c0 29 5 128 10 221 8 134 7 172 -3 178 -10 7 -191 68 -200 68
-2 0 -10 -6 -19 -12z m126 -244 c19 -19 22 -104 4 -122 -7 -7 -24 -12 -38 -12
-38 0 -50 18 -50 71 0 51 18 79 50 79 10 0 26 -7 34 -16z"/>
<path d="M910 2595 c-144 -27 -245 -72 -309 -139 -40 -41 -46 -86 -18 -130 26
-40 113 -92 200 -121 81 -27 232 -54 242 -43 6 6 34 339 35 411 0 36 -1 37
-37 36 -21 0 -72 -7 -113 -14z"/>
<path d="M1516 2498 c-15 -197 -17 -278 -6 -278 26 0 110 52 144 90 33 37 37
47 33 78 -4 19 -18 52 -33 73 -24 36 -109 109 -125 109 -4 0 -10 -33 -13 -72z"/>
<path d="M2215 2644 c109 -109 152 -216 133 -337 -17 -115 -104 -235 -342
-472 -263 -262 -687 -606 -1201 -975 l-90 -65 71 -6 c119 -9 197 -73 219 -179
16 -76 78 -119 151 -106 43 9 109 -9 156 -41 33 -22 69 -79 95 -151 8 -22 13
-19 113 67 58 50 106 94 107 98 1 5 -43 46 -98 93 -140 118 -149 127 -149 145
0 19 35 55 55 55 14 0 72 -46 213 -168 l62 -55 105 104 104 104 -114 98 c-125
106 -139 131 -90 163 25 16 27 16 65 -12 21 -16 77 -62 123 -102 l85 -73 54
58 c101 108 138 150 138 159 -1 5 -37 50 -80 99 -94 107 -101 135 -36 159 19
6 57 -27 150 -133 l39 -45 29 35 c45 54 128 176 128 189 0 7 -22 44 -50 83
-56 79 -62 109 -26 132 33 22 52 10 96 -54 19 -28 38 -51 42 -51 10 0 48 107
64 180 19 88 18 324 -1 436 -23 129 -49 211 -105 321 -60 119 -137 214 -221
273 l-64 44 70 -70z"/>
<path d="M2 1789 c3 -309 3 -315 27 -361 13 -25 46 -68 72 -94 l49 -48 0 132
c0 119 2 134 20 152 11 11 27 20 35 20 8 0 24 -9 35 -20 18 -18 20 -33 20
-189 l0 -168 78 -35 c42 -20 87 -39 99 -42 l23 -7 0 131 c0 72 5 140 10 151
12 22 62 26 79 6 6 -8 12 -75 13 -167 l3 -155 74 -17 c41 -9 98 -20 128 -24
l53 -6 0 154 c0 165 4 178 50 178 46 0 50 -14 50 -162 0 -76 3 -138 6 -138 21
0 460 341 674 523 136 116 309 271 306 274 -1 1 -26 -7 -56 -18 -83 -31 -263
-75 -390 -95 -138 -21 -475 -24 -620 -6 -351 46 -617 148 -794 303 l-47 41 3
-313z"/>
<path d="M531 666 c-97 -70 -121 -115 -88 -173 10 -17 350 -296 521 -426 71
-55 105 -52 197 19 41 32 95 74 120 95 l46 38 -22 67 c-31 96 -55 114 -153
114 -132 1 -205 54 -246 181 -29 88 -61 109 -165 109 -47 1 -86 6 -101 15 -14
8 -27 14 -30 14 -3 0 -38 -24 -79 -53z m342 -263 c136 -108 161 -138 140 -172
-6 -9 -22 -17 -37 -19 -22 -3 -54 18 -167 109 -116 93 -139 116 -139 138 0 33
17 51 46 51 12 0 79 -46 157 -107z"/>
</g>
</svg>
